<svg version="1.1" id="Layer_1" xmlns="http://www.w3.org/2000/svg" xmlns:xlink="http://www.w3.org/1999/xlink" x="0px" y="0px"
	 width="100%" viewBox="0 0 1024 1024" enable-background="new 0 0 1024 1024" xml:space="preserve">
<path fill="#000000" opacity="1.000000" stroke="none" 
	d="
M524.182739,738.027710 
	C590.358154,727.116882 649.087769,701.260864 699.540527,657.152893 
	C744.965271,617.440552 777.565002,569.161011 797.958252,512.501038 
	C798.746094,510.312042 799.680847,508.095001 799.962830,505.818604 
	C801.307861,494.959869 809.792664,491.347809 818.244507,488.235870 
	C825.161255,485.689148 829.242493,489.202209 829.090515,497.209869 
	C828.723083,516.571594 825.795227,535.597412 821.218018,554.412476 
	C810.543518,598.291016 791.010620,637.910156 763.673645,673.684753 
	C727.738220,720.711975 682.117371,755.244568 627.239441,777.284729 
	C595.552979,790.010681 562.526733,797.374329 528.460876,800.480408 
	C472.968506,805.540039 419.155457,798.459595 367.059357,778.901489 
	C327.654480,764.107910 291.830383,743.187561 261.480713,713.731995 
	C224.906403,678.234985 201.114624,635.620544 192.748291,585.099731 
	C181.447845,516.861145 195.841995,453.273193 230.204590,394.087585 
	C267.884003,329.189240 321.251740,281.581482 390.943207,252.923157 
	C419.576996,241.148453 449.382599,233.913757 480.194702,230.567505 
	C545.951477,223.426178 609.394592,231.769287 670.044067,258.665558 
	C704.192810,273.809509 734.420349,294.889893 761.390930,320.680817 
	C762.827148,322.054199 764.135010,323.595947 765.308105,325.201508 
	C766.697144,327.102539 767.073914,329.276733 765.401428,331.178162 
	C763.725098,333.084106 761.493530,333.786316 759.072144,332.668640 
	C757.418152,331.905243 755.825256,330.958008 754.325439,329.919220 
	C708.046326,297.866425 657.025330,278.070374 601.277771,270.196594 
	C558.360291,264.134888 515.692810,265.034576 473.079590,273.030334 
	C422.473724,282.525757 375.527985,300.760468 333.246796,330.415161 
	C317.927673,341.159576 303.754883,353.268097 290.972198,366.958160 
	C288.944336,369.130005 287.144806,371.515045 284.593811,374.576691 
	C290.119812,374.979309 294.819916,375.255432 299.506561,375.680328 
	C305.140747,376.191071 310.777374,376.821472 316.218781,378.438263 
	C321.827026,380.104645 323.634186,383.318634 322.442108,388.984131 
	C319.589203,402.543030 319.661316,401.714325 333.262604,402.897888 
	C342.528442,403.704224 351.141266,399.371185 360.332184,401.237183 
	C363.391144,401.858215 363.666687,398.439026 364.479828,396.442657 
	C370.449005,381.787750 378.475769,368.463318 389.435516,356.967987 
	C407.795990,337.710266 430.684692,328.074799 456.868622,327.921173 
	C531.695679,327.482056 606.527283,327.826080 681.357056,327.843353 
	C684.741150,327.844116 687.991211,328.304321 691.058044,329.807983 
	C697.108643,332.774536 699.688538,338.322601 697.659973,344.748810 
	C693.451721,358.080017 689.081299,371.359924 684.798889,384.667755 
	C682.695679,391.203522 678.351562,395.815216 672.524353,399.200256 
	C670.976379,400.099457 669.078186,400.478607 667.640747,402.506348 
	C674.458130,408.605164 670.454590,417.817291 673.543213,425.029968 
	C675.847168,425.069672 676.125793,423.509186 676.706238,422.435059 
	C679.082336,418.037994 681.549927,413.672852 683.605713,409.125000 
	C685.818909,404.228790 689.231506,402.350281 694.638000,402.496552 
	C708.286865,402.865875 721.948303,402.800446 735.604858,402.816711 
	C737.401855,402.818848 739.208618,402.327576 740.995483,401.984802 
	C754.134277,399.464630 765.542175,401.685455 773.442444,413.697906 
	C773.978149,414.512421 774.782166,415.150543 775.773926,416.202057 
	C780.660400,412.451447 784.662048,407.745483 790.349854,405.125275 
	C800.712097,400.351685 811.216248,399.768127 821.960449,403.112091 
	C833.835083,406.807861 842.088440,419.704956 840.821533,432.953430 
	C840.115173,440.339325 839.285706,447.612335 834.386780,454.100342 
	C832.043213,457.203979 832.042053,462.284454 831.553772,466.535522 
	C830.661865,474.301849 826.302429,478.002930 818.902039,479.770935 
	C808.369507,482.287231 797.869812,483.382416 787.264954,481.098877 
	C780.425720,479.626190 774.573975,476.150757 770.296692,470.398102 
	C769.333130,469.102142 768.368896,467.806671 767.167297,466.191498 
	C764.556885,468.612793 762.313110,470.784180 759.973999,472.847565 
	C751.348328,480.456451 741.313477,483.688477 729.944031,481.745087 
	C726.283081,481.119324 724.663208,482.054138 724.001709,485.586029 
	C723.206604,489.831116 722.185120,494.035431 721.199097,498.242767 
	C719.656067,504.826599 716.698364,507.243774 710.046692,507.312195 
	C704.880798,507.365356 699.711365,507.421631 694.548157,507.291687 
	C688.072021,507.128723 684.909729,503.073425 686.262695,496.675507 
	C688.120544,487.889404 690.119690,479.133240 692.034119,470.358978 
	C692.348022,468.920227 692.537720,467.454376 693.035767,464.524475 
	C687.905579,470.949310 685.136536,477.122131 681.701111,482.855408 
	C678.190552,488.713898 673.853088,494.209045 670.955078,500.228088 
	C667.966492,506.435303 673.723450,512.544983 674.536865,519.025024 
	C676.353088,533.494080 675.261414,547.584839 671.327942,561.511719 
	C664.335938,586.267456 655.899902,610.462585 641.760010,632.204956 
	C621.710083,663.034790 592.767456,679.783325 556.820374,685.306335 
	C534.976501,688.662415 513.045044,688.742615 491.047882,687.548584 
	C484.896973,687.214783 478.718170,687.411316 472.552673,687.327209 
	C442.562378,686.918335 412.563202,686.803711 382.586731,685.921509 
	C371.325043,685.590027 359.907745,686.152283 348.782532,683.440979 
	C337.654175,680.728882 333.878418,673.809082 337.421021,662.998108 
	C340.892731,652.403503 344.825897,641.898865 347.375488,631.076538 
	C352.042877,611.264954 363.430908,605.061584 382.095551,605.021545 
	C410.585175,604.960388 439.076447,605.541260 467.566559,605.888123 
	C485.059448,606.101135 502.554260,606.684814 520.042786,606.522034 
	C529.810181,606.431213 539.662415,606.086426 548.964661,602.051208 
	C556.901062,598.608337 562.667236,593.357361 565.401672,585.037231 
	C567.324707,579.185974 569.342346,573.362488 571.108337,567.463867 
	C573.172302,560.570129 570.824280,554.883484 564.541565,551.381470 
	C559.658386,548.659546 554.387573,547.363464 548.753357,547.364197 
	C523.087646,547.367371 497.419342,547.511719 471.757111,547.191467 
	C451.788635,546.942261 431.720398,546.724731 412.304504,541.215942 
	C382.903168,532.874084 363.283752,514.509399 355.831268,484.324829 
	C354.956696,480.782654 353.631256,480.087372 350.298431,481.089508 
	C344.970062,482.691589 339.446991,482.977051 334.000763,481.693604 
	C331.077881,481.004761 329.991547,482.371216 329.423218,484.781403 
	C328.316925,489.473083 327.244202,494.172729 326.155151,498.868469 
	C324.755005,504.905762 321.871246,507.253662 315.618103,507.311737 
	C310.452118,507.359711 305.282440,507.418091 300.119537,507.279633 
	C293.831696,507.110992 290.588776,503.398102 291.593750,497.192627 
	C292.706085,490.324188 294.233276,483.522919 295.555939,476.813538 
	C294.475006,475.563751 293.551483,476.339081 292.715027,476.722198 
	C275.143585,484.769592 257.029144,483.415497 238.887100,479.533813 
	C232.748627,478.220428 231.231339,474.939484 232.647766,468.786774 
	C233.916000,463.277863 235.212753,457.775513 236.504517,452.272095 
	C238.387024,444.251892 238.930450,443.818939 247.230377,443.696625 
	C248.185883,443.682556 249.141800,443.694733 251.242203,443.694733 
	C247.515457,440.538788 244.791672,437.937866 242.479675,434.883911 
	C239.958481,435.871368 239.691391,438.227142 238.903870,440.098480 
	C228.034225,465.927765 221.464249,492.709137 220.023621,520.812805 
	C217.624359,567.616943 228.638214,610.642700 255.447205,649.252869 
	C274.867920,677.222473 300.610413,697.962097 330.805969,713.376831 
	C360.992157,728.786743 393.149353,737.228699 426.726440,740.869812 
	C459.212952,744.392700 491.539398,743.369446 524.182739,738.027710 
M261.942474,473.421570 
	C267.646393,474.105835 273.239075,473.220123 278.785492,472.080872 
	C294.302429,468.893677 303.192108,459.096741 304.857880,443.491455 
	C306.053986,432.285950 302.768463,427.029266 291.933075,423.876465 
	C286.367401,422.256989 280.559570,421.488556 274.918640,420.101868 
	C271.670654,419.303406 268.311066,418.195190 267.754944,414.140747 
	C267.162445,409.820892 268.631683,406.247650 272.309143,403.770050 
	C274.127380,402.544983 276.234497,402.040680 278.385681,401.637573 
	C287.210785,399.984009 295.954590,401.009552 304.694427,402.323700 
	C307.012329,402.672211 309.591431,403.432800 310.433105,400.216156 
	C311.554901,395.929199 313.184875,391.702759 312.865082,387.079620 
	C308.019165,385.047150 302.945221,385.176392 298.057281,384.604065 
	C291.783661,383.869476 285.476074,384.460785 279.154663,385.183502 
	C264.258942,386.886475 253.384323,395.716858 249.337326,410.052582 
	C245.017105,425.356140 250.146362,434.178070 265.560516,437.691895 
	C270.574463,438.834930 275.740295,439.357513 280.700958,440.674927 
	C285.528534,441.957001 287.066040,445.902771 285.061646,450.420227 
	C283.585052,453.748047 280.842072,455.529358 277.466064,456.327820 
	C270.389557,458.001617 263.242249,457.607574 256.135529,456.585449 
	C244.124710,454.858032 244.278610,454.825623 241.853455,466.952606 
	C241.192413,470.258057 242.494629,471.079834 245.156021,471.656921 
	C250.394470,472.792786 255.734833,472.815613 261.942474,473.421570 
M524.838623,414.279480 
	C511.334503,423.585266 507.026978,437.523712 506.449707,452.781830 
	C505.872437,468.038879 515.450989,475.973816 530.380615,473.653229 
	C534.783691,472.968903 538.508667,470.862915 541.861389,467.994110 
	C542.924561,467.084412 543.630188,465.432922 545.513123,465.950897 
	C545.842712,472.653534 545.842712,472.653748 553.000183,472.666016 
	C554.164978,472.667999 555.342102,472.558380 556.492249,472.688660 
	C560.277832,473.117371 562.069092,471.744843 562.902771,467.732849 
	C567.967773,443.358734 573.327637,419.045837 578.590393,394.712830 
	C581.021484,383.472534 580.674377,383.207245 568.768555,383.330078 
	C564.850891,383.370483 563.009827,384.889771 562.339966,388.621307 
	C561.401367,393.849640 560.396606,399.082153 559.051758,404.216339 
	C557.979370,408.310211 558.233643,412.774750 555.800171,416.955353 
	C546.308777,407.974701 536.151917,407.899506 524.838623,414.279480 
M314.456329,431.842285 
	C310.458679,450.189636 306.457428,468.536194 302.464661,486.884613 
	C299.870026,498.808044 299.878784,498.611938 311.872925,498.809601 
	C316.322968,498.882904 317.999573,497.259552 318.770630,493.043121 
	C320.339325,484.465332 322.421600,475.981445 324.372894,467.091309 
	C325.544708,467.605042 326.284882,467.702545 326.653442,468.124542 
	C334.380188,476.972137 350.793915,474.486664 358.681671,467.597260 
	C370.724762,457.078613 375.509949,443.498749 374.459442,427.846558 
	C373.939453,420.099060 370.809296,413.543121 362.652527,410.987640 
	C353.533966,408.130829 345.258362,409.670135 338.188385,416.388672 
	C337.377411,417.159332 336.752075,418.320831 334.768463,417.669250 
	C336.278717,412.152649 332.524231,411.888184 328.496735,411.841980 
	C327.003815,411.824860 325.515717,411.548767 324.021362,411.457886 
	C320.776093,411.260406 318.712494,412.327850 318.078583,415.952637 
	C317.192169,421.020996 315.831726,426.006470 314.456329,431.842285 
M715.345886,483.977356 
	C716.828735,478.500488 717.109863,472.676331 719.521301,467.292389 
	C736.764343,477.776886 751.687195,473.776001 761.989136,456.679016 
	C767.449646,447.616791 769.281921,437.924683 768.740295,427.501099 
	C768.118958,415.541718 758.911194,407.981049 747.085815,409.618713 
	C740.424683,410.541199 734.941284,413.489929 730.556274,418.124237 
	C727.971497,416.367767 730.024780,414.126892 728.630859,412.503998 
	C726.609741,411.528442 724.230896,411.660400 721.949463,411.627808 
	C713.636719,411.509064 713.784485,411.603333 712.039062,419.809631 
	C708.303467,437.373474 704.411682,454.904205 700.556641,472.442566 
	C698.680847,480.976410 696.743774,489.496826 694.899109,497.734528 
	C695.610352,498.253967 695.736816,498.424133 695.880249,498.439941 
	C711.824219,500.199066 711.824280,500.198425 715.345886,483.977356 
M657.304443,496.923065 
	C665.104431,493.731201 669.220215,487.042664 672.978638,480.129395 
	C684.108032,459.657990 695.133118,439.129791 706.180359,418.613770 
	C707.312439,416.511353 709.033020,414.642914 709.462952,411.412506 
	C705.498718,411.412506 701.989380,411.700226 698.547363,411.341461 
	C693.992859,410.866699 691.611511,412.887878 689.692505,416.822205 
	C683.491516,429.536102 676.999451,442.108246 670.596680,454.723358 
	C669.890930,456.113983 669.646851,458.031006 666.886169,458.014740 
	C665.828979,446.312805 664.514771,434.630188 663.789001,422.911133 
	C663.090942,411.639709 663.358398,411.623108 652.267456,411.478760 
	C645.536377,411.391144 644.591736,412.361359 645.438660,418.972687 
	C647.359314,433.965820 649.402100,448.943420 651.287781,463.940857 
	C651.907166,468.867126 652.239868,473.799835 659.120789,473.097046 
	C659.338318,476.227264 657.695129,478.022217 656.138733,479.660004 
	C652.098206,483.911682 647.070679,484.778015 641.455811,483.618622 
	C639.442566,483.202881 636.573792,482.349274 635.879150,485.167511 
	C634.881714,489.213989 632.237122,493.166504 634.176880,497.584351 
	C634.419312,498.136536 635.593018,498.520172 636.359314,498.564362 
	C643.151184,498.956238 649.992249,499.903961 657.304443,496.923065 
M599.975586,439.298981 
	C598.450073,446.278198 596.857544,453.243622 595.413757,460.239685 
	C592.824951,472.783813 592.865967,472.575165 605.720947,472.788422 
	C610.197571,472.862671 611.799561,471.149261 612.657349,467.098969 
	C616.921997,446.962585 621.444153,426.880829 625.734375,406.749756 
	C626.479004,403.255737 627.940613,401.463104 631.734131,401.728638 
	C635.213440,401.972198 638.722046,401.829376 642.217407,401.806763 
	C653.896240,401.731140 652.664185,403.650177 655.206238,391.395996 
	C656.338501,385.937561 655.870544,385.270844 650.259766,385.256989 
	C632.781677,385.213806 615.302856,385.153320 597.825439,385.270721 
	C584.983398,385.356995 587.791626,383.500366 584.675110,396.052399 
	C583.678955,400.064575 584.670410,401.997223 589.208679,401.804443 
	C595.128479,401.553009 601.067017,401.742920 607.845459,401.742920 
	C605.973145,414.744934 602.779053,426.560181 599.975586,439.298981 
M428.464172,466.813110 
	C428.151428,463.785675 430.568726,460.833557 428.795532,457.475433 
	C422.149170,458.507507 415.744873,460.643738 409.052917,460.217529 
	C404.138458,459.904510 399.341797,459.083405 396.830505,454.010498 
	C394.376648,449.053680 395.661804,446.922058 401.197296,446.869507 
	C409.016724,446.795288 416.837402,446.840790 424.657532,446.847931 
	C437.442261,446.859589 438.417664,445.885132 438.617615,432.830353 
	C438.625275,432.331482 438.627380,431.831421 438.602539,431.333374 
	C438.029572,419.849396 432.913544,412.693085 423.431915,410.525269 
	C410.757660,407.627533 399.646393,410.777527 390.546478,420.036072 
	C382.446198,428.277557 379.086945,438.838379 378.688568,449.972992 
	C378.230835,462.766602 385.139099,470.861237 397.503632,473.130341 
	C406.793823,474.835266 416.033783,473.594757 425.104309,471.061005 
	C426.972626,470.539124 427.807373,469.290863 428.464172,466.813110 
M480.914368,459.756317 
	C477.784027,460.454742 474.598663,460.527679 471.469025,460.039124 
	C467.147125,459.364471 462.850647,458.430725 460.794891,453.787750 
	C458.617706,448.870453 459.751801,446.941559 465.052063,446.897217 
	C475.217590,446.812164 485.385773,446.719391 495.549133,446.873993 
	C499.083923,446.927734 500.550873,445.607330 501.144379,442.162689 
	C502.118011,436.511902 502.427338,430.856201 501.488739,425.259064 
	C500.472290,419.197418 497.382233,414.217712 491.362823,411.966187 
	C482.235168,408.552032 473.181915,409.008606 464.179962,412.918915 
	C447.986084,419.953339 441.485016,441.635010 443.248444,454.998077 
	C444.315765,463.086304 448.467987,468.899689 456.321899,471.749969 
	C465.443665,475.060394 474.719635,474.002808 483.944061,472.485809 
	C492.305573,471.110779 494.824615,466.862671 492.921021,457.607666 
	C489.218567,458.252533 485.498291,458.900543 480.914368,459.756317 
M828.461304,418.177429 
	C820.563660,409.301270 806.695618,407.130127 794.517639,412.869720 
	C779.727905,419.840271 772.790161,435.950043 772.668640,450.178741 
	C772.553894,463.608826 779.109619,470.423370 792.489319,473.068756 
	C799.848938,474.523804 807.102661,473.291748 814.282166,471.865753 
	C821.778259,470.376953 824.451111,465.819092 822.904724,457.740509 
	C821.061584,457.089630 819.371033,458.169098 817.648132,458.519135 
	C812.574463,459.549805 807.478394,460.580658 802.303101,460.084625 
	C797.625183,459.636261 792.965576,458.759735 790.579773,453.815002 
	C788.234131,448.953461 789.348083,446.940155 794.614075,446.897736 
	C804.779297,446.815857 814.945374,446.801727 825.110901,446.829956 
	C827.620972,446.836914 829.824890,446.609619 830.449219,443.610168 
	C832.201599,435.190796 833.224976,426.818237 828.461304,418.177429 
M630.413330,428.810303 
	C627.734131,440.524139 625.054871,452.238007 622.369019,463.981079 
	C629.516235,466.454498 635.830566,468.639709 643.128967,471.165466 
	C640.515564,452.611359 638.029785,434.963257 635.544006,417.315186 
	C631.703186,420.475433 631.956848,424.537354 630.413330,428.810303 
M500.339294,402.313110 
	C498.902130,402.474365 497.331879,402.285461 496.070282,404.231812 
	C501.443390,407.257446 505.275391,411.952698 509.283325,417.351562 
	C513.646912,411.527069 518.902649,407.859955 524.978271,403.414764 
	C516.296997,401.450287 508.688019,402.614441 500.339294,402.313110 
z"/>
<path fill="#000000" opacity="1.000000" stroke="none" 
	d="
M836.000122,967.663147 
	C893.833252,967.657471 951.166443,967.650208 1008.499573,967.649597 
	C1015.325012,967.649475 1015.340515,967.666138 1015.345032,974.509216 
	C1015.352905,986.509155 1015.231384,998.510559 1015.400024,1010.508057 
	C1015.451843,1014.193604 1014.206421,1015.425720 1010.514404,1015.421387 
	C945.181335,1015.345398 879.848206,1015.350891 814.515137,1015.428955 
	C810.846008,1015.433350 809.551392,1014.188171 809.598145,1010.504150 
	C809.758667,997.839539 809.764038,985.170471 809.602417,972.505920 
	C809.555359,968.821045 810.809265,967.499329 814.501892,967.610596 
	C821.495483,967.821289 828.500061,967.666504 836.000122,967.663147 
z"/>
<path fill="#000000" opacity="1.000000" stroke="none" 
	d="
M547.501953,452.294067 
	C545.288086,455.369965 542.815979,457.459839 539.488770,458.539917 
	C531.848083,461.020203 525.880737,457.465485 525.409851,449.448273 
	C524.960388,441.795532 526.780762,434.517822 532.024231,428.584473 
	C535.752075,424.366180 540.470764,422.781494 546.000549,424.552246 
	C551.039062,426.165771 553.244934,429.517120 552.429626,434.808899 
	C551.522217,440.698792 550.928406,446.714386 547.501953,452.294067 
z"/>
<path fill="#000000" opacity="1.000000" stroke="none" 
	d="
M328.353821,449.173828 
	C329.516449,444.276733 330.560852,439.760132 331.727203,435.275299 
	C332.690674,431.570496 335.053406,428.789612 338.124847,426.664398 
	C342.047455,423.950134 346.321289,422.994507 350.812317,425.161285 
	C355.026337,427.194397 355.876221,431.308411 355.879852,435.288147 
	C355.885895,441.855255 354.267700,448.140381 350.138794,453.458221 
	C347.610016,456.715271 344.243256,458.809906 340.051300,459.237335 
	C333.358582,459.919800 329.114319,456.393738 328.353821,449.173828 
z"/>
<path fill="#000000" opacity="1.000000" stroke="none" 
	d="
M726.669312,434.021271 
	C729.870850,427.755157 734.368530,423.993774 741.381409,424.296631 
	C746.207397,424.505066 749.336304,427.188751 749.913818,431.872131 
	C751.024597,440.879211 749.091370,449.153320 742.204102,455.591827 
	C737.933777,459.583862 732.192932,460.461090 727.907166,458.036194 
	C724.205444,455.941681 722.354370,452.744141 723.236755,448.456787 
	C724.207336,443.740936 725.438477,439.078705 726.669312,434.021271 
z"/>
<path fill="#000000" opacity="1.000000" stroke="none" 
	d="
M414.926331,435.383789 
	C409.780884,435.304932 405.125610,435.242065 400.472046,435.117249 
	C400.050659,435.105957 399.640015,434.695770 399.269470,434.495239 
	C399.488342,426.063263 408.653809,420.290436 417.031128,422.910461 
	C421.038300,424.163727 423.768066,429.905609 422.075439,433.537598 
	C420.640289,436.617035 417.685883,434.918884 414.926331,435.383789 
z"/>
<path fill="#000000" opacity="1.000000" stroke="none" 
	d="
M476.185913,422.510620 
	C483.807800,421.757172 486.680237,427.208496 486.275818,432.139709 
	C486.114532,434.106140 485.264313,435.272919 483.230804,435.280487 
	C476.639313,435.305084 470.047668,435.289673 463.452087,435.289673 
	C463.679504,427.843689 468.158203,423.440613 476.185913,422.510620 
z"/>
<path fill="#000000" opacity="1.000000" stroke="none" 
	d="
M802.064087,435.384277 
	C798.669617,435.131317 795.651367,435.951050 792.852722,434.640961 
	C793.441467,425.655273 804.735596,419.289246 812.366150,423.510742 
	C815.498535,425.243713 817.350098,430.287354 816.141113,433.486481 
	C815.452332,435.309204 813.970215,435.316589 812.486633,435.339630 
	C809.174438,435.391144 805.861267,435.373840 802.064087,435.384277 
z"/>
</svg>